# Blender v2.78 (sub 0) OBJ File: 'flat_pinball.blend'
# www.blender.org
o Cube_Cube.002
v -58.245964 5.405407 31.505241
v -58.245964 35.369545 31.505241
v -58.245964 5.405407 -27.011963
v -58.245964 35.369545 -27.011963
v -56.245964 5.405407 31.505241
v -56.245964 35.369545 31.505241
v -56.245964 5.405407 -27.011963
v -56.245964 35.369545 -27.011963
vt 0.0002 0.0041
vt 0.9969 1.0076
vt 0.9969 0.0080
vt 1.0038 0.0197
vt 0.9697 0.4305
vt 1.0038 0.4305
vt 0.0051 0.9920
vt 0.9861 -0.0076
vt 0.9861 0.9920
vt 0.9736 0.4465
vt 1.0077 0.8572
vt 0.9736 0.8572
vt 0.9664 -0.0154
vt 1.0005 0.9842
vt 1.0005 -0.0154
vt 1.0012 0.0197
vt 0.9670 1.0193
vt 0.9670 0.0197
vt 0.0002 1.0037
vt 0.9697 0.0197
vt 0.0051 -0.0076
vt 1.0077 0.4465
vt 0.9664 0.9842
vt 1.0012 1.0193
vn -1.0000 0.0000 0.0000
vn 0.0000 0.0000 -1.0000
vn 1.0000 0.0000 0.0000
vn 0.0000 0.0000 1.0000
vn 0.0000 -1.0000 0.0000
vn 0.0000 1.0000 0.0000
s off
f 2/1/1 3/2/1 1/3/1
f 4/4/2 7/5/2 3/6/2
f 8/7/3 5/8/3 7/9/3
f 6/10/4 1/11/4 5/12/4
f 7/13/5 1/14/5 3/15/5
f 4/16/6 6/17/6 8/18/6
f 2/1/1 4/19/1 3/2/1
f 4/4/2 8/20/2 7/5/2
f 8/7/3 6/21/3 5/8/3
f 6/10/4 2/22/4 1/11/4
f 7/13/5 5/23/5 1/14/5
f 4/16/6 2/24/6 6/17/6
