# Blender v2.78 (sub 0) OBJ File: 'Catapult.blend'
# www.blender.org
o Back_Left_Wheel_Cylinder.007
v -1.081259 1.570341 -2.692967
v -1.081259 1.570342 -2.404456
v -0.985319 1.453439 -2.692967
v -0.985319 1.453439 -2.404455
v -0.914029 1.320065 -2.692967
v -0.914029 1.320065 -2.404456
v -0.870129 1.175346 -2.692968
v -0.870129 1.175346 -2.404455
v -0.855306 1.024844 -2.692967
v -0.855306 1.024844 -2.404455
v -0.870129 0.874342 -2.692968
v -0.870129 0.874342 -2.404455
v -0.914029 0.729623 -2.692967
v -0.914029 0.729623 -2.404456
v -0.985319 0.596250 -2.692968
v -0.985319 0.596250 -2.404455
v -1.081259 0.479347 -2.692968
v -1.081259 0.479347 -2.404456
v -1.198161 0.383407 -2.692968
v -1.198161 0.383407 -2.404456
v -1.331535 0.312118 -2.692967
v -1.331535 0.312118 -2.404456
v -1.476253 0.268218 -2.692968
v -1.476253 0.268218 -2.404456
v -1.626756 0.253394 -2.692968
v -1.626756 0.253395 -2.404455
v -1.777258 0.268218 -2.692968
v -1.777258 0.268218 -2.404455
v -1.921977 0.312118 -2.692968
v -1.921977 0.312118 -2.404456
v -2.055350 0.383407 -2.692968
v -2.055350 0.383407 -2.404456
v -2.172253 0.479347 -2.692968
v -2.172253 0.479347 -2.404455
v -2.268193 0.596250 -2.692968
v -2.268193 0.596250 -2.404455
v -2.339482 0.729623 -2.692968
v -2.339482 0.729624 -2.404456
v -2.383382 0.874342 -2.692968
v -2.383382 0.874342 -2.404455
v -2.398205 1.024845 -2.692968
v -2.398205 1.024845 -2.404456
v -2.383382 1.175347 -2.692967
v -2.383382 1.175347 -2.404455
v -2.339482 1.320065 -2.692968
v -2.339482 1.320065 -2.404455
v -2.268192 1.453439 -2.692967
v -2.268192 1.453439 -2.404456
v -2.172252 1.570342 -2.692967
v -2.172252 1.570342 -2.404455
v -2.055349 1.666281 -2.692968
v -2.055350 1.666281 -2.404455
v -1.921976 1.737571 -2.692967
v -1.921976 1.737571 -2.404455
v -1.777257 1.781471 -2.692968
v -1.777257 1.781471 -2.404455
v -1.626755 1.796293 -2.692967
v -1.626755 1.796294 -2.404456
v -1.476252 1.781470 -2.692967
v -1.476252 1.781470 -2.404455
v -1.331534 1.737570 -2.692967
v -1.331534 1.737570 -2.404455
v -1.198160 1.666280 -2.692967
v -1.198160 1.666280 -2.404456
vt 0.2818 0.6746
vt 0.3758 0.6266
vt 0.3758 0.6746
vt 0.2818 0.5858
vt 0.3758 0.5858
vt 0.1879 0.5858
vt 0.2818 0.6338
vt 0.1879 0.6338
vt 0.1879 0.6871
vt 0.2818 0.7436
vt 0.1879 0.7436
vt 0.1879 0.8013
vt 0.2818 0.8579
vt 0.1879 0.8579
vt 0.2818 0.9112
vt 0.1879 0.9112
vt 0.2818 0.9592
vt 0.1879 0.9592
vt 0.1879 1.0000
vt 0.0939 0.5858
vt 0.1879 0.6266
vt 0.0939 0.6266
vt 0.0939 0.6746
vt 0.1879 0.6746
vt 0.0939 0.7279
vt 0.1879 0.7844
vt 0.0939 0.7844
vt 0.0939 0.8421
vt 0.1879 0.8421
vt 0.0939 0.8987
vt 0.1879 0.8987
vt 0.0939 0.9520
vt 0.1879 1.0000
vt 0.0939 1.0000
vt 0.0000 1.0000
vt 0.0939 0.9592
vt 0.0000 0.9112
vt 0.0939 0.9112
vt 0.0939 0.8579
vt 0.0000 0.8013
vt 0.0939 0.8013
vt 0.0939 0.7436
vt 0.0000 0.7436
vt 0.0939 0.6871
vt 0.0000 0.6338
vt 0.0939 0.6338
vt 0.0939 0.5858
vt 0.3758 1.0000
vt 0.2818 0.9520
vt 0.3758 0.9520
vt 0.3758 0.8987
vt 0.2818 0.8987
vt 0.3758 0.8421
vt 0.2818 0.7844
vt 0.3758 0.7844
vt 0.5000 0.2640
vt 0.2746 0.5858
vt 0.0000 0.3217
vt 0.2818 0.7279
vt 0.3758 0.7279
vt 0.5096 0.2075
vt 0.9715 0.1542
vt 0.9904 0.3783
vt 0.2818 0.6266
vt 0.2818 0.6871
vt 0.2818 0.8013
vt 0.2818 1.0000
vt 0.1879 0.5858
vt 0.1879 0.7279
vt 0.1879 0.9520
vt 0.0000 0.9592
vt 0.0000 0.8579
vt 0.0000 0.6871
vt 0.0000 0.5858
vt 0.2818 1.0000
vt 0.2818 0.8421
vt 0.0000 0.2640
vt 0.0558 0.1062
vt 0.0096 0.2075
vt 0.0285 0.1542
vt 0.0906 0.0654
vt 0.1316 0.0333
vt 0.1771 0.0113
vt 0.2254 0.0000
vt 0.2746 0.0000
vt 0.3229 0.0113
vt 0.3684 0.0333
vt 0.4094 0.0654
vt 0.4442 0.1062
vt 0.4715 0.1542
vt 0.4904 0.2075
vt 0.5000 0.3217
vt 0.4442 0.4796
vt 0.4904 0.3783
vt 0.4715 0.4316
vt 0.4094 0.5204
vt 0.3684 0.5525
vt 0.3229 0.5745
vt 0.2254 0.5858
vt 0.1771 0.5745
vt 0.1316 0.5525
vt 0.0906 0.5204
vt 0.0558 0.4796
vt 0.0285 0.4316
vt 0.0096 0.3783
vt 0.9715 0.4316
vt 0.9442 0.4796
vt 0.9094 0.5204
vt 0.8684 0.5525
vt 0.8229 0.5745
vt 0.7746 0.5858
vt 0.7254 0.5858
vt 0.6771 0.5745
vt 0.6316 0.5525
vt 0.5906 0.5204
vt 0.5558 0.4796
vt 0.5285 0.4316
vt 0.5096 0.3783
vt 0.5000 0.3217
vt 0.5000 0.2640
vt 0.5285 0.1542
vt 0.6316 0.0333
vt 0.5558 0.1062
vt 0.5906 0.0654
vt 0.6771 0.0113
vt 0.7254 0.0000
vt 0.7746 0.0000
vt 0.8229 0.0113
vt 0.8684 0.0333
vt 0.9094 0.0654
vt 0.9442 0.1062
vt 0.9904 0.2075
vt 1.0000 0.2640
vt 1.0000 0.3217
vn 0.7730 0.6344 -0.0000
vn 0.8819 0.4714 -0.0000
vn 0.9569 0.2903 -0.0000
vn 0.9952 0.0980 0.0000
vn 0.9952 -0.0980 0.0000
vn 0.9569 -0.2903 0.0000
vn 0.8819 -0.4714 0.0000
vn 0.7730 -0.6344 0.0000
vn 0.6344 -0.7730 0.0000
vn 0.4714 -0.8819 0.0000
vn 0.2903 -0.9569 0.0000
vn 0.0980 -0.9952 0.0000
vn -0.0980 -0.9952 0.0000
vn -0.2903 -0.9569 0.0000
vn -0.4714 -0.8819 0.0000
vn -0.6344 -0.7730 0.0000
vn -0.7730 -0.6344 0.0000
vn -0.8819 -0.4714 0.0000
vn -0.9569 -0.2903 0.0000
vn -0.9952 -0.0980 0.0000
vn -0.9952 0.0980 0.0000
vn -0.9569 0.2903 0.0000
vn -0.8819 0.4714 0.0000
vn -0.7730 0.6344 0.0000
vn -0.6344 0.7730 -0.0000
vn -0.4714 0.8819 -0.0000
vn -0.2903 0.9569 0.0000
vn -0.0980 0.9952 0.0000
vn 0.0980 0.9952 0.0000
vn 0.2903 0.9569 0.0000
vn 0.0000 0.0000 1.0000
vn 0.4714 0.8819 -0.0000
vn 0.6344 0.7730 -0.0000
vn 0.0000 -0.0000 -1.0000
s off
f 2/1/1 3/2/1 1/3/1
f 3/2/2 6/4/2 5/5/2
f 5/6/3 8/7/3 7/8/3
f 8/7/4 9/9/4 7/8/4
f 9/9/5 12/10/5 11/11/5
f 12/10/6 13/12/6 11/11/6
f 13/12/7 16/13/7 15/14/7
f 15/14/8 18/15/8 17/16/8
f 17/16/9 20/17/9 19/18/9
f 20/17/10 21/19/10 19/18/10
f 21/20/11 24/21/11 23/22/11
f 24/21/12 25/23/12 23/22/12
f 26/24/13 27/25/13 25/23/13
f 27/25/14 30/26/14 29/27/14
f 30/26/15 31/28/15 29/27/15
f 32/29/16 33/30/16 31/28/16
f 34/31/17 35/32/17 33/30/17
f 35/32/18 38/33/18 37/34/18
f 38/35/19 39/36/19 37/34/19
f 39/36/20 42/37/20 41/38/20
f 42/37/21 43/39/21 41/38/21
f 43/39/22 46/40/22 45/41/22
f 46/40/23 47/42/23 45/41/23
f 48/43/24 49/44/24 47/42/24
f 49/44/25 52/45/25 51/46/25
f 52/45/26 53/47/26 51/46/26
f 53/48/27 56/49/27 55/50/27
f 56/49/28 57/51/28 55/50/28
f 58/52/29 59/53/29 57/51/29
f 59/53/30 62/54/30 61/55/30
f 38/56/31 22/57/31 6/58/31
f 61/55/32 64/59/32 63/60/32
f 63/60/33 2/1/33 1/3/33
f 31/61/34 55/62/34 63/63/34
f 2/1/1 4/64/1 3/2/1
f 3/2/2 4/64/2 6/4/2
f 5/6/3 6/4/3 8/7/3
f 8/7/4 10/65/4 9/9/4
f 9/9/5 10/65/5 12/10/5
f 12/10/6 14/66/6 13/12/6
f 13/12/7 14/66/7 16/13/7
f 15/14/8 16/13/8 18/15/8
f 17/16/9 18/15/9 20/17/9
f 20/17/10 22/67/10 21/19/10
f 21/20/11 22/68/11 24/21/11
f 24/21/12 26/24/12 25/23/12
f 26/24/13 28/69/13 27/25/13
f 27/25/14 28/69/14 30/26/14
f 30/26/15 32/29/15 31/28/15
f 32/29/16 34/31/16 33/30/16
f 34/31/17 36/70/17 35/32/17
f 35/32/18 36/70/18 38/33/18
f 38/35/19 40/71/19 39/36/19
f 39/36/20 40/71/20 42/37/20
f 42/37/21 44/72/21 43/39/21
f 43/39/22 44/72/22 46/40/22
f 46/40/23 48/43/23 47/42/23
f 48/43/24 50/73/24 49/44/24
f 49/44/25 50/73/25 52/45/25
f 52/45/26 54/74/26 53/47/26
f 53/48/27 54/75/27 56/49/27
f 56/49/28 58/52/28 57/51/28
f 58/52/29 60/76/29 59/53/29
f 59/53/30 60/76/30 62/54/30
f 6/58/31 4/77/31 62/78/31
f 2/79/31 64/80/31 62/78/31
f 62/78/31 60/81/31 58/82/31
f 58/82/31 56/83/31 54/84/31
f 54/84/31 52/85/31 50/86/31
f 50/86/31 48/87/31 46/88/31
f 46/88/31 44/89/31 42/90/31
f 42/90/31 40/91/31 46/88/31
f 38/56/31 36/92/31 30/93/31
f 34/94/31 32/95/31 30/93/31
f 30/93/31 28/96/31 26/97/31
f 26/97/31 24/98/31 22/57/31
f 22/57/31 20/99/31 18/100/31
f 18/100/31 16/101/31 14/102/31
f 14/102/31 12/103/31 10/104/31
f 10/104/31 8/105/31 6/58/31
f 4/77/31 2/79/31 62/78/31
f 62/78/31 58/82/31 54/84/31
f 54/84/31 50/86/31 46/88/31
f 46/88/31 40/91/31 38/56/31
f 36/92/31 34/94/31 30/93/31
f 30/93/31 26/97/31 38/56/31
f 22/57/31 18/100/31 6/58/31
f 14/102/31 10/104/31 6/58/31
f 6/58/31 62/78/31 38/56/31
f 54/84/31 46/88/31 38/56/31
f 38/56/31 26/97/31 22/57/31
f 18/100/31 14/102/31 6/58/31
f 62/78/31 54/84/31 38/56/31
f 61/55/32 62/54/32 64/59/32
f 63/60/33 64/59/33 2/1/33
f 63/63/34 1/106/34 3/107/34
f 3/107/34 5/108/34 63/63/34
f 7/109/34 9/110/34 11/111/34
f 11/111/34 13/112/34 7/109/34
f 15/113/34 17/114/34 19/115/34
f 19/115/34 21/116/34 15/113/34
f 23/117/34 25/118/34 27/119/34
f 27/119/34 29/120/34 31/61/34
f 31/61/34 33/121/34 39/122/34
f 35/123/34 37/124/34 39/122/34
f 39/122/34 41/125/34 43/126/34
f 43/126/34 45/127/34 39/122/34
f 47/128/34 49/129/34 51/130/34
f 51/130/34 53/131/34 55/62/34
f 55/62/34 57/132/34 59/133/34
f 59/133/34 61/134/34 55/62/34
f 63/63/34 5/108/34 7/109/34
f 7/109/34 13/112/34 15/113/34
f 15/113/34 21/116/34 23/117/34
f 23/117/34 27/119/34 15/113/34
f 33/121/34 35/123/34 39/122/34
f 39/122/34 45/127/34 47/128/34
f 47/128/34 51/130/34 55/62/34
f 55/62/34 61/134/34 63/63/34
f 63/63/34 7/109/34 31/61/34
f 15/113/34 27/119/34 31/61/34
f 31/61/34 39/122/34 47/128/34
f 47/128/34 55/62/34 31/61/34
f 7/109/34 15/113/34 31/61/34
