# Blender v2.78 (sub 0) OBJ File: 'chair.blend'
# www.blender.org
mtllib chair.mtl
o Cube
v 1.020742 0.025695 -1.000000
v 1.020742 0.025695 1.000000
v -0.979258 0.025695 1.000000
v -0.979258 0.025695 -1.000000
v 1.020742 2.025695 -0.999999
v 1.020741 2.025695 1.000001
v -0.979258 2.025695 1.000000
v -0.979258 2.025695 -1.000000
v 1.020742 0.025695 0.811850
v -0.979258 0.025695 0.811850
v 1.020741 2.025695 0.811851
v -0.979258 2.025695 0.811850
v -0.979258 0.025695 -0.791578
v -0.979258 2.025695 -0.791578
v 1.020742 0.025695 -0.791578
v 1.020742 2.025695 -0.791577
v 0.811750 0.025695 -1.000000
v 0.811750 0.025695 1.000000
v 0.811750 2.025695 -1.000000
v 0.811749 2.025695 1.000000
v 0.811749 2.025695 0.811851
v 0.811750 0.025695 0.811850
v 0.811750 0.025695 -0.791578
v 0.811750 2.025695 -0.791577
v -0.787724 0.025695 -1.000000
v -0.787724 0.025695 1.000000
v -0.787724 2.025695 -1.000000
v -0.787725 2.025695 1.000000
v -0.787724 0.025695 0.811850
v -0.787724 0.025695 -0.791578
v -0.787725 2.025695 0.811850
v -0.787724 2.025695 -0.791578
v 1.020742 1.847846 -0.791578
v 1.020742 1.847846 0.811850
v -0.979258 1.847846 0.811850
v -0.787724 1.847846 0.811850
v -0.979258 1.847846 -0.791578
v -0.787724 1.847846 -0.791578
v 0.811750 1.847846 0.811850
v 0.811750 1.847846 -0.791578
v 0.811750 1.847846 -1.000000
v 0.811750 1.847846 1.000000
v -0.787724 1.847846 -1.000000
v -0.787724 1.847846 1.000000
v 0.811750 2.025984 -1.000000
v -0.787724 2.025984 -1.000000
v -0.979258 2.025257 0.811850
v -0.979258 2.025257 -0.791578
v 0.811750 2.025360 1.000000
v -0.787724 2.025360 1.000000
v 1.020742 2.024833 -0.791578
v 1.020742 2.024833 0.811850
v -0.787725 5.022489 0.811850
v -0.979258 5.022489 0.811850
v -0.979258 5.022489 1.000000
v -0.787725 5.022489 1.000000
v -0.787724 5.022489 -1.000000
v -0.979258 5.022489 -1.000000
v -0.979258 5.022489 -0.791578
v -0.787724 5.022489 -0.791578
v -0.979258 4.677568 0.811850
v -0.979258 4.677568 -0.791578
v -0.787725 4.677568 0.811850
v -0.787724 4.677568 -0.791578
vt 0.0821 0.6305
vt 0.1071 0.6059
vt 0.0821 0.6059
vt 0.2105 0.3466
vt 0.4198 0.0004
vt 0.4198 0.3466
vt 0.6867 0.3473
vt 0.7113 0.6084
vt 0.6867 0.6084
vt 0.6824 0.0799
vt 0.7074 0.3410
vt 0.6824 0.3410
vt 0.6587 0.6084
vt 0.6859 0.3473
vt 0.6587 0.3473
vt 0.4696 0.3473
vt 0.4446 0.6084
vt 0.4696 0.6084
vt 0.7327 0.0799
vt 0.7081 0.3410
vt 0.7327 0.3410
vt 0.5233 0.7385
vt 0.4983 0.3923
vt 0.4983 0.7385
vt 0.0276 0.6309
vt 0.0004 0.6059
vt 0.0004 0.6309
vt 0.6370 0.3172
vt 0.6620 0.1079
vt 0.6620 0.3172
vt 0.6308 0.3473
vt 0.6580 0.6084
vt 0.6308 0.6084
vt 0.5802 0.3458
vt 0.5556 0.1079
vt 0.5556 0.3458
vt 0.4205 0.0799
vt 0.4477 0.1071
vt 0.4205 0.1071
vt 0.5810 0.3180
vt 0.6082 0.3452
vt 0.6082 0.3180
vt 0.4477 0.0799
vt 0.6571 0.1071
vt 0.5747 0.6084
vt 0.6020 0.3473
vt 0.5747 0.3473
vt 0.6027 0.3473
vt 0.6300 0.6084
vt 0.6027 0.6084
vt 0.6571 0.0799
vt 0.6816 0.1071
vt 0.0541 0.6305
vt 0.0814 0.6059
vt 0.0541 0.6059
vt 0.4438 0.6084
vt 0.2350 0.5812
vt 0.4438 0.5812
vt 0.4205 0.3458
vt 0.4478 0.1079
vt 0.4478 0.3458
vt 0.4438 0.3719
vt 0.5296 0.3458
vt 0.5046 0.1079
vt 0.5046 0.3458
vt 0.2350 0.3473
vt 0.4438 0.3473
vt 0.2097 0.3723
vt 0.0004 0.3473
vt 0.0004 0.3723
vt 0.6082 0.1079
vt 0.5810 0.3172
vt 0.6082 0.3172
vt 0.6090 0.3167
vt 0.6362 0.1079
vt 0.6090 0.1079
vt 0.0004 0.5811
vt 0.2343 0.5811
vt 0.2097 0.5811
vt 0.5303 0.3458
vt 0.5549 0.1079
vt 0.5549 0.3458
vt 0.4438 0.6092
vt 0.2059 0.6364
vt 0.4438 0.6364
vt 0.4766 0.3458
vt 0.5038 0.1079
vt 0.5038 0.3458
vt 0.4438 0.6621
vt 0.2059 0.6371
vt 0.4438 0.6371
vt 0.4758 0.3458
vt 0.4486 0.1079
vt 0.4486 0.3458
vt 0.2092 0.6051
vt 0.0004 0.5819
vt 0.0004 0.6051
vt 0.4153 0.6860
vt 0.2059 0.6629
vt 0.2059 0.6860
vt 0.2059 0.7100
vt 0.4147 0.6868
vt 0.4147 0.7100
vt 0.7351 0.5566
vt 0.7120 0.3473
vt 0.7351 0.3473
vt 0.1079 0.6309
vt 0.1325 0.6059
vt 0.1325 0.6309
vt 0.4205 0.0283
vt 0.8117 0.0533
vt 0.8117 0.0283
vt 0.5739 0.3473
vt 0.5494 0.7385
vt 0.5739 0.7385
vt 0.4205 0.0791
vt 0.8117 0.0541
vt 0.8117 0.0791
vt 0.5241 0.3473
vt 0.5486 0.7385
vt 0.5241 0.7385
vt 0.0283 0.6059
vt 0.0533 0.6331
vt 0.0283 0.6331
vt 0.4446 0.9996
vt 0.4205 0.0004
vt 0.8117 0.0276
vt 0.8117 0.0004
vt 0.4983 0.3473
vt 0.4703 0.3473
vt 0.4975 0.7385
vt 0.4703 0.7385
vt 0.4656 0.0283
vt 0.2097 0.3466
vt 0.0004 0.0004
vt 0.0004 0.3466
vt 0.1071 0.6305
vt 0.2105 0.0004
vt 0.7113 0.3473
vt 0.7074 0.0799
vt 0.6859 0.6084
vt 0.4446 0.3473
vt 0.7081 0.0799
vt 0.5233 0.3923
vt 0.0276 0.6059
vt 0.6370 0.1079
vt 0.6580 0.3473
vt 0.5802 0.1079
vt 0.5810 0.3452
vt 0.6020 0.6084
vt 0.6300 0.3473
vt 0.6816 0.0799
vt 0.0814 0.6305
vt 0.2350 0.6084
vt 0.4205 0.1079
vt 0.2350 0.3719
vt 0.5296 0.1079
vt 0.2097 0.3473
vt 0.5810 0.1079
vt 0.6362 0.3167
vt 0.2343 0.3723
vt 0.5303 0.1079
vt 0.2059 0.6092
vt 0.4766 0.1079
vt 0.2059 0.6621
vt 0.4758 0.1079
vt 0.2092 0.5819
vt 0.4153 0.6629
vt 0.2059 0.6868
vt 0.7120 0.5566
vt 0.1079 0.6059
vt 0.4205 0.0533
vt 0.5494 0.3473
vt 0.4205 0.0541
vt 0.5486 0.3473
vt 0.0533 0.6059
vt 0.4696 0.9996
vt 0.4205 0.0276
vt 0.5233 0.3473
vt 0.4975 0.3473
vt 0.4656 0.0533
vt 0.2097 0.0004
vn 0.0000 -1.0000 0.0000
vn 1.0000 0.0000 0.0000
vn 0.0000 0.0000 1.0000
vn -1.0000 -0.0000 -0.0000
vn 0.0000 0.0000 -1.0000
vn 0.0000 1.0000 -0.0000
usemtl Material
s off
f 26/1/1 10/2/1 29/3/1
f 32/4/2 63/5/2 31/6/2
f 11/7/2 2/8/2 9/9/2
f 28/10/3 3/11/3 26/12/3
f 14/13/4 4/14/4 13/15/4
f 25/16/5 8/17/5 27/18/5
f 7/19/4 10/20/4 3/21/4
f 14/22/5 64/23/5 32/24/5
f 30/25/1 4/26/1 25/27/1
f 62/28/6 63/29/6 64/30/6
f 5/31/2 15/32/2 1/33/2
f 18/34/4 39/35/4 22/36/4
f 19/37/6 16/38/6 5/39/6
f 1/40/1 23/41/1 17/42/1
f 24/43/6 11/44/6 16/38/6
f 1/45/5 19/46/5 5/47/5
f 6/48/3 18/49/3 2/50/3
f 21/51/6 6/52/6 11/44/6
f 2/53/1 22/54/1 9/55/1
f 19/56/6 32/57/6 24/58/6
f 15/59/3 40/60/3 23/61/3
f 32/57/6 21/62/6 24/58/6
f 10/63/5 36/64/5 29/65/5
f 21/62/6 28/66/6 20/67/6
f 36/68/1 37/69/1 38/70/1
f 34/71/1 40/72/1 33/73/1
f 41/74/1 38/75/1 43/76/1
f 40/77/1 36/68/1 38/70/1
f 42/78/1 36/68/1 39/79/1
f 29/80/2 44/81/2 26/82/2
f 23/83/4 41/84/4 17/85/4
f 25/86/2 38/87/2 30/88/2
f 30/89/3 37/90/3 13/91/3
f 22/92/5 34/93/5 9/94/5
f 43/95/5 45/96/5 41/97/5
f 35/98/4 48/99/4 37/100/4
f 42/101/3 50/102/3 44/103/3
f 33/104/2 52/105/2 34/106/2
f 53/107/6 55/108/6 56/109/6
f 54/110/5 31/111/5 12/112/5
f 55/113/4 12/114/4 7/115/4
f 56/116/3 7/117/3 28/118/3
f 53/119/2 28/120/2 31/121/2
f 57/122/6 59/123/6 60/124/6
f 58/125/5 27/18/5 8/17/5
f 59/126/4 8/127/4 14/128/4
f 60/129/3 14/22/3 32/24/3
f 57/130/2 32/131/2 27/132/2
f 31/111/3 61/133/3 12/112/3
f 12/134/4 62/135/4 14/136/4
f 26/1/1 3/137/1 10/2/1
f 32/4/2 64/138/2 63/5/2
f 11/7/2 6/139/2 2/8/2
f 28/10/3 7/140/3 3/11/3
f 14/13/4 8/141/4 4/14/4
f 25/16/5 4/142/5 8/17/5
f 7/19/4 12/143/4 10/20/4
f 14/22/5 62/144/5 64/23/5
f 30/25/1 13/145/1 4/26/1
f 62/28/6 61/146/6 63/29/6
f 5/31/2 16/147/2 15/32/2
f 18/34/4 42/148/4 39/35/4
f 19/37/6 24/43/6 16/38/6
f 1/40/1 15/149/1 23/41/1
f 24/43/6 21/51/6 11/44/6
f 1/45/5 17/150/5 19/46/5
f 6/48/3 20/151/3 18/49/3
f 21/51/6 20/152/6 6/52/6
f 2/53/1 18/153/1 22/54/1
f 19/56/6 27/154/6 32/57/6
f 15/59/3 33/155/3 40/60/3
f 32/57/6 31/156/6 21/62/6
f 10/63/5 35/157/5 36/64/5
f 21/62/6 31/156/6 28/66/6
f 36/68/1 35/158/1 37/69/1
f 34/71/1 39/159/1 40/72/1
f 41/74/1 40/160/1 38/75/1
f 40/77/1 39/79/1 36/68/1
f 42/78/1 44/161/1 36/68/1
f 29/80/2 36/162/2 44/81/2
f 23/83/4 40/163/4 41/84/4
f 25/86/2 43/164/2 38/87/2
f 30/89/3 38/165/3 37/90/3
f 22/92/5 39/166/5 34/93/5
f 43/95/5 46/167/5 45/96/5
f 35/98/4 47/168/4 48/99/4
f 42/101/3 49/169/3 50/102/3
f 33/104/2 51/170/2 52/105/2
f 53/107/6 54/171/6 55/108/6
f 54/110/5 53/172/5 31/111/5
f 55/113/4 54/173/4 12/114/4
f 56/116/3 55/174/3 7/117/3
f 53/119/2 56/175/2 28/120/2
f 57/122/6 58/176/6 59/123/6
f 58/125/5 57/177/5 27/18/5
f 59/126/4 58/178/4 8/127/4
f 60/129/3 59/179/3 14/22/3
f 57/130/2 60/180/2 32/131/2
f 31/111/3 63/181/3 61/133/3
f 12/134/4 61/182/4 62/135/4
