# Blender v2.77 (sub 0) OBJ File: 'Board.blend'
# www.blender.org
o Cube_Cube.002
v -1.989966 0.012724 1.011897
v -1.879089 0.407083 0.901020
v -1.989966 0.012724 -0.988102
v -1.879089 0.407083 -0.877225
v 1.993651 0.012724 1.011897
v 1.882774 0.407083 0.901020
v 1.993651 0.012724 -0.988102
v 1.882774 0.407083 -0.877225
v -1.989966 0.407083 1.011897
v -1.989966 0.407083 -0.988102
v 1.993651 0.407083 -0.988102
v 1.993651 0.407083 1.011897
v -1.879089 0.017200 0.901020
v -1.879089 0.017200 -0.877225
v 1.882774 0.017200 -0.877225
v 1.882774 0.017200 0.901020
vt 0.5232 0.6092
vt 0.8009 0.6640
vt 0.8009 0.6092
vt 0.8903 0.5534
vt 0.9451 0.0003
vt 0.8903 0.0003
vt 0.8009 0.5539
vt 0.5232 0.6087
vt 0.5232 0.5539
vt 0.8350 0.0003
vt 0.8898 0.5534
vt 0.8350 0.5534
vt 0.2785 0.0003
vt 0.5562 0.5534
vt 0.5562 0.0003
vt 0.9456 0.0003
vt 0.9997 0.5226
vt 0.9456 0.5226
vt 0.5722 0.0157
vt 0.8345 0.0003
vt 0.8191 0.0157
vt 0.2626 0.0157
vt 0.2780 0.5534
vt 0.2626 0.5380
vt 0.0157 0.0157
vt 0.2780 0.0003
vt 0.8345 0.5534
vt 0.8191 0.5380
vt 0.0003 0.5539
vt 0.5226 0.8009
vt 0.0003 0.8009
vt 0.8014 0.8009
vt 0.8555 0.5539
vt 0.8014 0.5539
vt 0.0003 0.8014
vt 0.5226 0.8555
vt 0.5226 0.8014
vt 0.8561 0.5539
vt 0.9102 0.8009
vt 0.8561 0.8009
vt 0.5232 0.6640
vt 0.9451 0.5534
vt 0.8009 0.6087
vt 0.8898 0.0003
vt 0.2785 0.5534
vt 0.9997 0.0003
vt 0.5568 0.0003
vt 0.0003 0.0003
vt 0.5226 0.5539
vt 0.8555 0.8009
vt 0.0003 0.8555
vt 0.9102 0.5539
vn -1.0000 -0.0000 0.0000
vn 0.0000 0.0000 -1.0000
vn 1.0000 -0.0000 0.0000
vn 0.0000 0.0000 1.0000
vn 0.0000 -1.0000 0.0000
vn 0.0000 1.0000 0.0000
s off
f 10/1/1 1/2/1 9/3/1
f 11/4/2 3/5/2 10/6/2
f 12/7/3 7/8/3 11/9/3
f 9/10/4 5/11/4 12/12/4
f 3/13/5 5/14/5 1/15/5
f 4/16/4 15/17/4 8/18/4
f 4/19/6 9/20/6 2/21/6
f 8/22/6 10/23/6 4/24/6
f 6/25/6 11/26/6 8/22/6
f 2/21/6 12/27/6 6/28/6
f 15/29/6 13/30/6 16/31/6
f 8/32/1 16/33/1 6/34/1
f 6/35/2 13/36/2 2/37/2
f 2/38/3 14/39/3 4/40/3
f 10/1/1 3/41/1 1/2/1
f 11/4/2 7/42/2 3/5/2
f 12/7/3 5/43/3 7/8/3
f 9/10/4 1/44/4 5/11/4
f 3/13/5 7/45/5 5/14/5
f 4/16/4 14/46/4 15/17/4
f 4/19/6 10/47/6 9/20/6
f 8/22/6 11/26/6 10/23/6
f 6/25/6 12/48/6 11/26/6
f 2/21/6 9/20/6 12/27/6
f 15/29/6 14/49/6 13/30/6
f 8/32/1 15/50/1 16/33/1
f 6/35/2 16/51/2 13/36/2
f 2/38/3 13/52/3 14/39/3
